<?xml version="1.0" encoding="utf-8"?>
<svg version="1.1" xmlns:xlink="http://www.w3.org/1999/xlink" width="133px" height="133px" xmlns="http://www.w3.org/2000/svg">
  <defs>
    <filter x="834px" y="1460px" width="133px" height="133px" filterUnits="userSpaceOnUse" id="filter24">
      <feOffset dx="10" dy="10" in="SourceAlpha" result="shadowOffsetInner" />
      <feGaussianBlur stdDeviation="10" in="shadowOffsetInner" result="shadowGaussian" />
      <feComposite in2="shadowGaussian" operator="atop" in="SourceAlpha" result="shadowComposite" />
      <feColorMatrix type="matrix" values="0 0 0 0 0  0 0 0 0 0  0 0 0 0 0  0 0 0 0.349019607843137 0  " in="shadowComposite" />
    </filter>
    <g id="widget25">
      <path d="M 890.5 1470  C 916.54 1470  937 1490.46  937 1516.5  C 937 1542.54  916.54 1563  890.5 1563  C 864.46 1563  844 1542.54  844 1516.5  C 844 1490.46  864.46 1470  890.5 1470  Z " fill-rule="nonzero" fill="#8a0d27" stroke="none" />
      <path d="M 890.5 1470.5  C 916.26 1470.5  936.5 1490.74  936.5 1516.5  C 936.5 1542.26  916.26 1562.5  890.5 1562.5  C 864.74 1562.5  844.5 1542.26  844.5 1516.5  C 844.5 1490.74  864.74 1470.5  890.5 1470.5  Z " stroke-width="1" stroke="#797979" fill="none" />
    </g>
  </defs>
  <g transform="matrix(1 0 0 1 -834 -1460 )">
    <use xlink:href="#widget25" filter="url(#filter24)" />
    <use xlink:href="#widget25" />
  </g>
</svg>